<svg xmlns="http://www.w3.org/2000/svg" width="800" height="800" fill="#fff" stroke="#fff" stroke-width="2" viewBox="0 0 96 96"><g data-name="Basket Bag"><path d="M75.13 48H56v-.5a4.49 4.49 0 0 0-3-4.22V21.5a4.5 4.5 0 0 0-9 0v21.78a4.49 4.49 0 0 0-3 4.22v.5H21.87a3.11 3.11 0 0 0-3.16 2.73 3 3 0 0 0 3 3.27h1.24l6.58 22A5.66 5.66 0 0 0 35 80h23.79a5.66 5.66 0 0 0 5.28-3.57L73 54h2.27a3 3 0 0 0 3-3.27A3.11 3.11 0 0 0 75.13 48ZM45 43V21.5a3.5 3.5 0 0 1 7 0V43zm-3 4.5a3.5 3.5 0 0 1 3.5-3.5h6a3.5 3.5 0 0 1 3.5 3.5v2a3.5 3.5 0 0 1-3.5 3.5h-6a3.5 3.5 0 0 1-3.5-3.5zm-21.78 4.85a2 2 0 0 1-.52-1.53A2.11 2.11 0 0 1 21.87 49H41v.5a4.6 4.6 0 0 0 .08.83.5.5 0 0 1 0 .12 6 6 0 0 0 .23.73l.06.13a4.3 4.3 0 0 0 .36.67l.07.09a4 4 0 0 0 .5.61l.34.31h-21a2 2 0 0 1-1.42-.64Zm42.92 23.7a4.67 4.67 0 0 1-4.35 3H35a4.65 4.65 0 0 1-4.49-3.34L24 54h48Zm13.64-23.7a2 2 0 0 1-1.47.65h-21l.34-.31a4 4 0 0 0 .5-.61l.07-.09a4.3 4.3 0 0 0 .36-.67l.06-.13a6 6 0 0 0 .23-.73.5.5 0 0 1 0-.12 4.6 4.6 0 0 0 .13-.84V49h19.13a2.11 2.11 0 0 1 2.17 1.82 2 2 0 0 1-.52 1.53Z"/><path d="M48.5 59a2.5 2.5 0 0 0-2.5 2.5v10a2.5 2.5 0 0 0 5 0v-10a2.5 2.5 0 0 0-2.5-2.5ZM50 71.5a1.5 1.5 0 0 1-3 0v-10a1.5 1.5 0 0 1 3 0ZM38.5 59a2.5 2.5 0 0 0-2.5 2.5v10a2.5 2.5 0 0 0 5 0v-10a2.5 2.5 0 0 0-2.5-2.5ZM40 71.5a1.5 1.5 0 0 1-3 0v-10a1.5 1.5 0 0 1 3 0ZM58.5 74a2.5 2.5 0 0 0 2.5-2.5v-10a2.5 2.5 0 0 0-5 0v10a2.5 2.5 0 0 0 2.5 2.5ZM57 61.5a1.5 1.5 0 0 1 3 0v10a1.5 1.5 0 0 1-3 0Z"/></g></svg>