<svg xmlns="http://www.w3.org/2000/svg" xml:space="preserve" id="Layer_1" width="800" height="800" viewBox="0 0 64 64"><style>.st1{fill:none;stroke:#fff;stroke-width:2;stroke-linecap:round;stroke-linejoin:round;stroke-miterlimit:10}</style><path d="M43 30.7v15.5c0 1.5-1.2 2.7-2.7 2.7H14.7c-1.5 0-2.7-1.2-2.7-2.7V30.7c0-1.5 1.2-2.7 2.7-2.7h25.6c1.5 0 2.7 1.2 2.7 2.7M12 33.5h31" class="st1"/><path d="m20.1 24 1.9-7c.4-1.5 1.9-2.3 3.4-1.9L50 21.7c1.5.4 2.3 1.9 1.9 3.4l-4 15M21.2 19.7l30 8M32.5 42h5c.8 0 1.5.7 1.5 1.5h0c0 .8-.7 1.5-1.5 1.5h-5c-.8 0-1.5-.7-1.5-1.5h0c0-.8.7-1.5 1.5-1.5" class="st1"/></svg>