<svg xmlns="http://www.w3.org/2000/svg" id="Layer_2" width="800" height="800" data-name="Layer 2" viewBox="0 0 48 48"><defs><style>.cls-1{fill:none;stroke:#fff;stroke-linecap:round;stroke-linejoin:round}</style></defs><path d="M27.89 26A1.94 1.94 0 0 0 26 27.89v12.66a1.94 1.94 0 0 0 1.94 2h12.61a2 2 0 0 0 2-2V27.89a1.94 1.94 0 0 0-2-1.94ZM7.45 5.5a2 2 0 0 0-1.95 2v12.61a1.94 1.94 0 0 0 2 1.94h12.61a1.94 1.94 0 0 0 1.94-1.94V7.45a1.94 1.94 0 0 0-1.94-1.95Z" class="cls-1"/><rect width="16.55" height="16.55" x="25.95" y="5.5" class="cls-1" rx="2.92"/><rect width="16.55" height="16.55" x="5.5" y="25.95" class="cls-1" rx="1.95"/><path d="M13.78 8.42v10.71M8.42 13.78h10.71M28.87 31.3h10.71M28.87 37.14h10.71" class="cls-1"/></svg>