<svg xmlns="http://www.w3.org/2000/svg" viewBox="0 0 448 512"><path stroke="#000" d="M152 24c0-13.3-10.7-24-24-24s-24 10.7-24 24v40H64C28.7 64 0 92.7 0 128v320c0 35.3 28.7 64 64 64h320c35.3 0 64-28.7 64-64V128c0-35.3-28.7-64-64-64h-40V24c0-13.3-10.7-24-24-24s-24 10.7-24 24v40H152zM48 192h352v256c0 8.8-7.2 16-16 16H64c-8.8 0-16-7.2-16-16z"/><text x="224" y="330" font-family="Arial, sans-serif" font-size="120" font-weight="bold" text-anchor="middle">
    <tspan x="224" dy="0">All</tspan>
    <tspan x="224" dy=".9em">time</tspan>
  </text></svg>