<svg xmlns="http://www.w3.org/2000/svg" width="800" height="800" fill="#fff" data-name="Your Icons" viewBox="0 0 96 96"><path d="m56.19 41.64-7.74-13.4-7.74 13.4-15.8-9.13 11.2-19.4A8.28 8.28 0 0 1 43.24 9h10.42a8.28 8.28 0 0 1 7.13 4.11L72 32.51Zm-7.74-17.39 8.47 14.65 12.33-7.12-10.2-17.67A6.24 6.24 0 0 0 53.66 11H43.24a6.25 6.25 0 0 0-5.4 3.11L27.65 31.78 40 38.9Z"/><path d="M48.45 27.24h-.1a1 1 0 0 1-.9-1.1c0-.39 1.13-9.7 12.14-13.47a1 1 0 1 1 .65 1.89c-9.82 3.37-10.79 11.7-10.8 11.79a1 1 0 0 1-.99.89M69.65 45l-18.31-3.3 4.77-2.33 14-8.08 5-3.36Zm-12-4.16 10.63 1.89 3.18-9.9-.34.23ZM78.11 85.85l-22.41-.06V67.54h15.47l-7.7-13.42 15.83-9.07 11.19 19.46a8.26 8.26 0 0 1 0 8.23l-5.23 9a8.25 8.25 0 0 1-7.15 4.11M57.7 83.79l20.4.06a6.25 6.25 0 0 0 5.39-3.1l5.23-9a6.23 6.23 0 0 0 0-6.22L78.6 47.82 66.24 54.9l8.42 14.69H57.73Z"/><path d="M78.09 85.85h-.19a1 1 0 0 1-.79-1.18c2-10.18-4.7-15.21-4.76-15.26a1 1 0 1 1 1.17-1.61c.32.23 7.82 5.84 5.55 17.26a1 1 0 0 1-.98.79M58.08 90.8l-12-13.28 12-14.2-.39 5.3v16.14Zm-9.32-13.32 7 7.72V69.24ZM40.18 86.07 17.79 86a8.25 8.25 0 0 1-7.11-4.15l-5.17-9a8.24 8.24 0 0 1 0-8.22l11.31-19.42 15.77 9.18-7.79 13.37 15.47.07ZM17.54 48 7.27 65.57a6.23 6.23 0 0 0 0 6.22l5.18 9A6.24 6.24 0 0 0 17.8 84l20.39.08.07-14.24-16.93-.08 8.52-14.63Z"/><path d="M17.86 70.68a18.05 18.05 0 0 1-12.11-4.87 1 1 0 0 1-.09-1.41 1 1 0 0 1 1.41-.09c7.75 6.82 15.28 3.66 15.59 3.52a1 1 0 0 1 .81 1.84 15.2 15.2 0 0 1-5.61 1.01M35.05 58.57l-4.39-3-13.95-8.11-5.42-2.7 17.5-3.7Zm-17.73-13 .37.18 13.43 7.83-3.63-10.2Z"/></svg>