<svg xmlns="http://www.w3.org/2000/svg" width="800" height="800" fill="#fff" viewBox="0 0 256 256"><path d="M160 144a4 4 0 0 1-4 4h-24v24a4 4 0 0 1-8 0v-24h-24a4 4 0 0 1 0-8h24v-24a4 4 0 0 1 8 0v24h24a4 4 0 0 1 4 4m68.008-64v128a12.013 12.013 0 0 1-12 12h-176a12.013 12.013 0 0 1-12-12V80a12.013 12.013 0 0 1 12-12H84V56a20.02 20.02 0 0 1 20-20h48a20.02 20.02 0 0 1 20 20v12h44.008a12.013 12.013 0 0 1 12 12M92 68h72V56a12.014 12.014 0 0 0-12-12h-48a12.014 12.014 0 0 0-12 12Zm128.008 12a4.005 4.005 0 0 0-4-4h-176a4.005 4.005 0 0 0-4 4v128a4.005 4.005 0 0 0 4 4h176a4.005 4.005 0 0 0 4-4Z"/></svg>