<svg xmlns="http://www.w3.org/2000/svg" width="800" height="800" fill="#fff" viewBox="0 0 256 256"><path d="M184 112h-32a4 4 0 0 1 0-8h32a4 4 0 0 1 0 8m-80-8H92V92a4 4 0 0 0-8 0v12H72a4 4 0 0 0 0 8h12v12a4 4 0 0 0 8 0v-12h12a4 4 0 0 0 0-8m113.562 115.51a32.03 32.03 0 0 1-28.184-8.883 4 4 0 0 1-.24-.262l-41.911-46.526-38.406.154-41.956 46.38q-.11.13-.234.254a32.002 32.002 0 0 1-54.14-28.189l16.327-83.974q.012-.093.028-.185A55.874 55.874 0 0 1 84.004 52l88.002-.26h.012a56.08 56.08 0 0 1 55.108 46.108c.007.035.023.066.03.101l16.35 84.423a32.05 32.05 0 0 1-25.944 37.138m-45.56-63.77a48 48 0 1 0 .026-96L84.016 60A47.89 47.89 0 0 0 36.77 99.411a4 4 0 0 1-.05.323l-16.364 84.162a24.002 24.002 0 0 0 40.523 21.168l43.194-47.748a4 4 0 0 1 2.95-1.316Zm63.638 28.087-11.017-56.878a56.1 56.1 0 0 1-52.605 36.791l-14.063.056 37.177 41.27a24.002 24.002 0 0 0 40.508-21.239"/></svg>