<svg xmlns="http://www.w3.org/2000/svg" xml:space="preserve" fill="#fff" viewBox="0 0 32 32"><path d="M7 17.36c1.853 0 3.36-1.508 3.36-3.36S8.853 10.64 7 10.64 3.64 12.147 3.64 14 5.147 17.36 7 17.36m0-6c1.456 0 2.64 1.185 2.64 2.64S8.456 16.64 7 16.64 4.36 15.456 4.36 14 5.544 11.36 7 11.36m16 5.5h5a.36.36 0 0 0 .36-.36v-5a.36.36 0 0 0-.36-.36h-5a.36.36 0 0 0-.36.36v5c0 .199.161.36.36.36m.36-5h4.279v4.28H23.36zm-4 16.391c0 .888-.723 1.61-1.61 1.61h-1.39V31h-.72v-1.139H13v-.721h4.75a.89.89 0 0 0 0-1.78h-3.5c-.888 0-1.609-.723-1.609-1.61s.722-1.61 1.609-1.61h1.391V23h.72v1.141H19v.721h-4.75a.89.89 0 0 0 0 1.78h3.5a1.61 1.61 0 0 1 1.61 1.609m-16.213-.037h7.52v.721h-7.52c-.905 0-1.716-.468-2.168-1.252s-.453-1.72 0-2.504l2.83-4.898-2.108.565-.187-.695 3.295-.882.883 3.295-.695.186-.565-2.109-2.83 4.899a1.77 1.77 0 0 0 0 1.784c.323.557.9.89 1.545.89m27.874-.599a2.48 2.48 0 0 1-2.169 1.253h-5.693l1.543 1.542-.51.51-2.411-2.412 2.411-2.413.51.51-1.543 1.543h5.693c.646 0 1.223-.333 1.546-.893a1.77 1.77 0 0 0 0-1.783l-4.189-7.292.625-.359 4.188 7.292a2.47 2.47 0 0 1-.001 2.502M22.348 5.8l-.883 3.295-3.295-.883.186-.695 2.103.563-2.818-4.826c-.323-.56-.901-.894-1.546-.894s-1.223.333-1.545.892l-4.24 6.936-.615-.376 4.235-6.928a2.48 2.48 0 0 1 2.164-1.244c.905 0 1.716.468 2.168 1.252l2.823 4.835.567-2.113z"/><path d="M0 0h32v32H0z" style="fill:none"/></svg>