<svg xmlns="http://www.w3.org/2000/svg" width="800" height="800" fill="#fff" viewBox="0 0 64 64"><path d="M55 15c0-3.309-2.691-6-6-6s-6 2.691-6 6a6.01 6.01 0 0 0 4.812 5.881c-2.893 14.9-7.59 30.56-10.365 30.56-1.352 0-3.303-5.079-4.87-9.159l-.22-.571c-.638-1.657-1.192-3.46-1.73-5.201-1.466-4.763-2.626-8.524-5.122-8.524-2.718 0-6.7 9.135-9.045 15.201A6 6 0 0 0 15 43c-3.309 0-6 2.691-6 6s2.691 6 6 6 6-2.692 6-6a6 6 0 0 0-2.704-5.008c2.556-6.581 5.984-13.591 7.21-14.006 1.019 0 2.338 4.28 3.21 7.112.547 1.775 1.112 3.61 1.774 5.332l.22.569c2.414 6.288 4.01 10.441 6.737 10.441 5.633 0 10.748-23.951 12.393-32.506C52.75 20.524 55 18.023 55 15ZM15 53c-2.206 0-4-1.794-4-4s1.794-4 4-4 4 1.794 4 4-1.794 4-4 4m34-34c-2.206 0-4-1.794-4-4s1.794-4 4-4 4 1.794 4 4-1.794 4-4 4"/></svg>