<svg xmlns="http://www.w3.org/2000/svg" viewBox="0 0 512 512"><path d="M413.153 0H98.847C82.89 0 69.908 12.982 69.908 28.939V483.06c0 15.958 12.982 28.94 28.939 28.94h314.306c15.957 0 28.939-12.982 28.939-28.94V28.939C442.092 12.982 429.11 0 413.153 0m13.939 483.06c0 7.686-6.253 13.94-13.939 13.94H98.847c-7.686 0-13.939-6.253-13.939-13.94V28.939C84.908 21.253 91.161 15 98.847 15h314.306c7.687 0 13.939 6.253 13.939 13.939z"/><path d="M388.14 34H123.86c-11.002 0-19.953 8.951-19.953 19.953v80.224a7.5 7.5 0 0 0 15 0V53.953A4.96 4.96 0 0 1 123.86 49h264.28a4.96 4.96 0 0 1 4.953 4.953v404.095a4.96 4.96 0 0 1-4.953 4.953H123.86a4.96 4.96 0 0 1-4.953-4.953V164.177a7.5 7.5 0 0 0-15 0v293.871c0 11.002 8.951 19.953 19.953 19.953h264.28c11.002 0 19.953-8.951 19.953-19.953V53.953c0-11.002-8.951-19.953-19.953-19.953"/><path d="M202.177 329.643a7.5 7.5 0 0 0-7.5 7.5v33.495a7.5 7.5 0 0 0 7.5 7.5h107.646a7.5 7.5 0 0 0 7.5-7.5v-33.495a7.5 7.5 0 0 0-7.5-7.5h-21.918v-39.86c0-4.142-3.357-7.5-7.5-7.5s-7.5 3.358-7.5 7.5v47.36a7.5 7.5 0 0 0 7.5 7.5h21.918v18.495h-92.646v-18.495h21.918a7.5 7.5 0 0 0 7.5-7.5V233.678a7.5 7.5 0 0 0-7.5-7.5h-21.918v-18.495h63.228v52.099c0 4.142 3.357 7.5 7.5 7.5s7.5-3.358 7.5-7.5v-59.599a7.5 7.5 0 0 0-7.5-7.5h-78.228a7.5 7.5 0 0 0-7.5 7.5v33.495a7.5 7.5 0 0 0 7.5 7.5h21.918v88.464zM287.256 147.482c0-18.566-15.105-33.671-33.671-33.671s-33.671 15.104-33.671 33.671 15.104 33.671 33.671 33.671c18.567.001 33.671-15.104 33.671-33.671m-52.341 0c0-10.295 8.375-18.671 18.671-18.671s18.671 8.376 18.671 18.671-8.376 18.671-18.671 18.671c-10.296.001-18.671-8.375-18.671-18.671"/></svg>