<svg xmlns="http://www.w3.org/2000/svg" xml:space="preserve" width="800" height="800" viewBox="0 0 64 60"><g fill="none" stroke="#fff" stroke-linejoin="round" stroke-width="2"><path d="M53.9 10h-20V6.9c0-1.1-.9-5.9-2-5.9s-2 4.8-2 5.9V10h-20c-1.7 0-3 1.3-3 2.9s1.3 2.9 3 2.9 3-1.3 3-2.9c0-.2 8.5 3.8 16.9 4v32.4c-4.7.2-8.3 1.9-8.3 3.2 0 .2.1.5.3.7H18c-.8 0-1.4.6-1.4 1.3v3.2c0 .7.6 1.3 1.4 1.3h4.1c.8 0 1.4-.6 1.4-1.3V57h16.4v.7c0 .7.6 1.3 1.4 1.3h4.1c.8 0 1.4-.6 1.4-1.3v-3.2c0-.7-.6-1.3-1.4-1.3h-3.8c.2-.2.3-.4.3-.7 0-1.3-3.6-3-8.3-3.2V16.9c8.5-.1 16.9-4.1 16.9-4 0 1.6 1.3 2.9 3 2.9s3-1.3 3-2.9c.4-1.6-.9-2.9-2.6-2.9z"/><path d="M1.1 42 10 15.9l9 27M45 43l8.9-27.1 9.1 28"/><path d="M19 42.4c0 1.9-4 3.6-9 3.6s-9-1.7-9-3.6 18-1.9 18 0zM62.9 43.4c0 1.9-4 3.6-9 3.6s-9-1.7-9-3.6c.1-1.9 18-1.9 18 0z"/></g></svg>