<svg xmlns="http://www.w3.org/2000/svg" width="800" height="800" fill="#fff" viewBox="0 0 48 48"><path d="M42.21 36.75H5.79a.79.79 0 0 1-.7-.42.77.77 0 0 1 0-.8L13.29 25a.78.78 0 0 1 .63-.32.85.85 0 0 1 .65.33l5.19 5.82 9.39-12.79a.83.83 0 0 1 1.31 0l12.4 17.49a.77.77 0 0 1 0 .79.79.79 0 0 1-.65.43m-36-1h35.56l-12-16.85-9.36 12.76a.78.78 0 0 1-.63.33.8.8 0 0 1-.66-.33l-5.19-5.83ZM19 21.25a5 5 0 0 1 0-10 5 5 0 0 1 0 10m0-9a4 4 0 0 0 0 8 4 4 0 0 0 0-8"/><path d="M43.5 45h-39A4.5 4.5 0 0 1 0 40.5v-33A4.5 4.5 0 0 1 4.5 3h39A4.5 4.5 0 0 1 48 7.5v33a4.5 4.5 0 0 1-4.5 4.5M4.5 4A3.5 3.5 0 0 0 1 7.5v33A3.5 3.5 0 0 0 4.5 44h39a3.5 3.5 0 0 0 3.5-3.5v-33A3.5 3.5 0 0 0 43.5 4z"/><path fill="none" d="M0 0h48v48H0z"/></svg>