<svg xmlns="http://www.w3.org/2000/svg" width="800" height="800" fill="none" viewBox="0 0 64 64"><path fill="#2a2941" fill-rule="evenodd" d="m31.154 33.568-5.946-14.255c-3.989 1.626-7 5.127-8.33 8.453-1.454 3.477-1.53 8.478.452 12.205z" clip-rule="evenodd"/><path fill="#2a2941" fill-rule="evenodd" d="m31.154 33.568-5.946-14.255c-3.989 1.626-7 5.127-8.33 8.453-1.454 3.477-1.53 8.478.452 12.205zm-1.606-.65L17.933 38.27c-1.255-3.201-1.054-7.178.075-10.054 1.129-2.75 3.462-5.577 6.548-7.277z" clip-rule="evenodd"/><path fill="#2a2941" fill-rule="evenodd" stroke="#2a2941" stroke-linecap="square" stroke-miterlimit="6.189" stroke-width="2.483" d="m22.875 42.572 6.598-3.076c6.197 3.251 9.408-.375 10.21-2.751.879-2.626.678-7.478-5.619-8.704l-2.885-6.927c4.616-.8 9.007.6 11.691 3 2.735 2.502 4.717 6.553 4.541 10.805-.125 3.551-1.806 9.629-8.53 12.305-5.57 2.2-12.67.175-16.006-4.652Z" clip-rule="evenodd"/><path fill="#fec34e" fill-rule="evenodd" d="M17.531 24.39c-1.33 3.476-1.33 8.278.552 11.905l13.824-6.428-.05-.05z" clip-rule="evenodd"/><path fill="#a694fe" fill-rule="evenodd" d="m31.756 30.017-5.92-14.205c-3.99 1.6-7 5.102-8.33 8.453l-.125.3z" clip-rule="evenodd"/><path fill="#2a2941" fill-rule="evenodd" d="m31.957 30.042-5.971-14.23c-3.99 1.6-7 5.102-8.33 8.453-1.455 3.476-1.53 8.478.452 12.205zm-1.631-.625L18.71 34.769c-1.254-3.201-1.053-7.178.075-10.054 1.13-2.75 3.463-5.577 6.549-7.278z" clip-rule="evenodd"/><path fill="#72a3fb" fill-rule="evenodd" d="m40.537 43.397-.878.425c-5.545 2.201-12.67.175-16.006-4.651l6.598-3.077c3.387 1.776 5.82 1.526 7.526.5z" clip-rule="evenodd"/><path fill="#ff9c00" fill-rule="evenodd" d="m40.236 33.619 6.824 2.65c-1.004 2.727-3.036 5.528-6.674 7.228l-2.784-6.802a5.84 5.84 0 0 0 2.634-3.076" clip-rule="evenodd"/><path fill="#f00010" fill-rule="evenodd" d="M47.938 30.292c-.15-1.35-.427-2.6-.803-3.951l.377 1.35c.35 1.3.551 2.651.577 3.952zM46.608 26.29a26.8 26.8 0 0 1 .954 5.278v.125a13.8 13.8 0 0 1-.954 4.552l-6.874-2.701.075-.15c.377-1.1.527-2.551.176-3.977z" clip-rule="evenodd"/><path fill="#32edbb" fill-rule="evenodd" d="M39.885 28.367c-.527-1.25-1.556-2.426-3.337-3.177l-.025-.025a9.7 9.7 0 0 0-2.133-.65l-2.91-6.928c2.684-.45 5.269-.2 7.501.6l.05.026c1.631.55 3.061 1.375 4.19 2.4 1.28 1.151 2.384 2.652 3.162 4.352l.4 1.176-6.572 3.101c-.075-.3-.176-.6-.301-.875z" clip-rule="evenodd"/><path fill="#2a2941" fill-rule="evenodd" d="m29.674 35.52-7.602 3.5.452.626c3.487 5.027 10.988 7.127 16.758 4.852 7-2.776 8.807-9.129 8.932-12.83.125-4.477-1.882-8.754-4.742-11.28-2.81-2.526-7.4-4.001-12.268-3.176l-.753.125 3.337 7.953.326.075c2.334.426 3.789 1.4 4.592 2.576 1.204 1.726 1.053 3.877.551 5.327-.451 1.226-1.655 2.926-3.687 3.427-1.456.375-3.287.175-5.595-1.05zm-5.67 4 5.62-2.625c2.534 1.275 4.59 1.4 6.196 1.025 2.584-.625 4.065-2.7 4.591-4.276.603-1.726.728-4.352-.727-6.428-.928-1.35-2.459-2.5-5.018-3.051l-2.458-5.877c4.14-.5 8.003.8 10.411 2.95 2.61 2.377 4.466 6.253 4.34 10.355-.125 3.376-1.78 9.178-8.153 11.704-5.018 2.05-11.465.375-14.802-3.776" clip-rule="evenodd"/></svg>