<svg xmlns="http://www.w3.org/2000/svg" width="800" height="800" fill="none" viewBox="0 0 64 64"><path fill="#2a2941" fill-rule="evenodd" d="m30.513 36.904-11.19 4.877 4.542 11.129 11.264-4.852-4.666-11.154z" clip-rule="evenodd"/><path fill="#2a2941" fill-rule="evenodd" d="M35.004 35.003a2.33 2.33 0 0 1-1.204-.675 2.46 2.46 0 0 1-.653-1.2c-.1-.45-.075-.926.076-1.35.15-.426.426-.826.802-1.101.352-.3.803-.476 1.255-.526s.928.026 1.355.226.777.525 1.028.9c.251.4.377.85.377 1.3 0 .426-.1.85-.327 1.226l4.115-1.8 4.666 11.153-11.264 4.902-1.782-4.326a2.5 2.5 0 0 1-.727 1.175 2.37 2.37 0 0 1-1.23.6 2.9 2.9 0 0 1-1.38-.125c-.426-.175-.827-.45-1.103-.825a2.7 2.7 0 0 1-.502-1.276c-.05-.475.05-.925.25-1.35.202-.425.528-.775.93-1a2.505 2.505 0 0 1 2.509-.075l-1.607-3.902zM27.427 28.326c.678.125.452 1.05.452 1.05l-1.58 2.926-4.341-2.2c.276.55.351 1.15.2 1.75s-.526 1.1-1.028 1.45a2.48 2.48 0 0 1-1.731.376 2.45 2.45 0 0 1-1.53-.875 2.48 2.48 0 0 1-.577-1.801c.05-.65.35-1.25.853-1.676.326-.275.727-.45 1.179-.5l-3.99-2.026 5.696-10.629 10.963 5.577-1.48 2.751s-.652.826-1.18.25a4.1 4.1 0 0 0-.977-1 3 3 0 0 0-.929-.375 2.7 2.7 0 0 0-1.003.025 2.5 2.5 0 0 0-.904.425q-.413.3-.677.75a2.7 2.7 0 0 0-.326.95c-.05.326 0 .676.075 1.001.1.325.251.625.477.875s.477.476.778.626c.552.175 1.078.3 1.58.3" clip-rule="evenodd"/><path fill="#32edbb" fill-rule="evenodd" d="m31.793 33.728-11.19 4.877 4.541 11.154 11.265-4.852-4.667-11.154h.05z" clip-rule="evenodd"/><path fill="#2a2941" fill-rule="evenodd" d="m38.115 45.557-5.62-13.555-13.573 5.902 5.52 13.555zm-6.322-11.83-11.19 4.878 4.541 11.154 11.265-4.852-4.667-11.154h.05z" clip-rule="evenodd"/><path fill="#ffb800" fill-rule="evenodd" d="M36.283 31.827a2.33 2.33 0 0 1-1.204-.675 2.46 2.46 0 0 1-.652-1.2 2.47 2.47 0 0 1 .075-1.351c.15-.425.427-.825.803-1.1.351-.3.803-.476 1.254-.526.452-.05.929.025 1.355.225.427.2.778.526 1.029.9.25.4.376.851.376 1.301 0 .4-.125.8-.326 1.176l4.09-1.801 4.666 11.154-11.265 4.902-1.831-4.277a2.7 2.7 0 0 1-.929 1.25c-.426.301-.953.476-1.48.476-.652 0-1.28-.25-1.73-.725a2.46 2.46 0 0 1-.729-1.726c0-.65.251-1.275.728-1.726.477-.45 1.079-.725 1.731-.725.402 0 .803.1 1.18.3l-1.606-3.901z" clip-rule="evenodd"/><path fill="#2a2941" fill-rule="evenodd" d="M31.391 36.154a3.8 3.8 0 0 0-1.48.7c-.427.325-.778.75-1.029 1.25s-.401 1.026-.426 1.576.075 1.1.276 1.6c.2.5.527.95.928 1.326.401.375.878.65 1.405.825a3.6 3.6 0 0 0 1.63.15 4 4 0 0 0 1.531-.525l1.48 3.602 13.673-5.953-5.62-13.58-3.26 1.426c-.227-.9-.779-1.676-1.531-2.226a3.94 3.94 0 0 0-2.635-.65c-.928.1-1.78.55-2.408 1.225a3.9 3.9 0 0 0-1.003 2.501c0 .775.225 1.526.677 2.15l-3.512 1.526zm4.892-4.327a2.33 2.33 0 0 1-1.204-.675 2.6 2.6 0 0 1-.652-1.2c-.1-.451-.075-.926.075-1.351s.427-.826.803-1.1c.351-.3.803-.476 1.254-.526.452-.05.929.025 1.355.225.427.2.778.525 1.029.9.25.4.376.85.376 1.301-.025.4-.125.8-.326 1.175l4.09-1.8 4.666 11.154-11.265 4.902-1.831-4.277a2.7 2.7 0 0 1-.929 1.25c-.426.3-.953.476-1.48.476-.652 0-1.28-.25-1.73-.725a2.46 2.46 0 0 1-.729-1.726c0-.65.251-1.276.728-1.726a2.48 2.48 0 0 1 1.731-.725c.402 0 .803.1 1.18.3l-1.606-3.901z" clip-rule="evenodd"/><path fill="#4c5efd" fill-rule="evenodd" d="M28.707 25.15c.677.125.451 1.05.451 1.05l-1.58 2.926-4.34-2.2c.2.424.3.875.25 1.35-.05.45-.225.9-.501 1.275s-.678.65-1.104.8-.903.2-1.355.1a2.47 2.47 0 0 1-1.204-.65c-.326-.325-.577-.725-.678-1.175-.1-.45-.1-.925.05-1.35.151-.45.427-.826.778-1.126.326-.275.728-.45 1.18-.5l-3.99-2.026 5.695-10.63 10.939 5.578-1.48 2.751s-.653.825-1.18.225a4.6 4.6 0 0 0-.978-1 3 3 0 0 0-.928-.375 2.7 2.7 0 0 0-1.004.025 2.5 2.5 0 0 0-.903.425q-.414.3-.677.75c-.176.3-.276.625-.326.95s0 .676.075 1c.075.326.25.626.477.876.225.25.476.475.777.625.502.2 1.029.325 1.556.325" clip-rule="evenodd"/><path fill="#2a2941" fill-rule="evenodd" d="M18.094 25.725a3.9 3.9 0 0 0-.777 2.55 3.85 3.85 0 0 0 1.129 2.427 3.76 3.76 0 0 0 2.458 1.075c.928.05 1.832-.25 2.56-.8a3.7 3.7 0 0 0 1.178-1.926l3.438 1.726 2.232-4.152v-.175c.076-.4.076-.825 0-1.25a1.83 1.83 0 0 0-.501-.876 1.8 1.8 0 0 0-.904-.45c-.225 0-.501-.075-.727-.1-.15 0-.301-.05-.452-.1a.9.9 0 0 1-.351-.325 1.4 1.4 0 0 1-.226-.425 1 1 0 0 1-.025-.476 1.4 1.4 0 0 1 .15-.45c.076-.15.201-.275.327-.35a1.4 1.4 0 0 1 .426-.225c.15-.05.326-.05.477-.025s.326.075.452.15c.326.175.451.5.677.775.276.35.677.55 1.104.626.426.05.878-.05 1.23-.276.275-.174.526-.4.752-.65l.075-.1 2.133-3.976-13.222-6.653-6.9 12.78 3.187 1.6zm10.613-.576c.677.125.451 1.05.451 1.05l-1.58 2.927-4.34-2.2c.2.424.3.875.25 1.35-.05.45-.225.9-.501 1.275a2.34 2.34 0 0 1-1.104.8c-.427.15-.903.2-1.355.1a2.47 2.47 0 0 1-1.204-.65c-.326-.325-.577-.725-.678-1.175-.1-.45-.1-.926.05-1.35.151-.45.427-.826.778-1.126.326-.275.728-.45 1.18-.5l-3.99-2.026 5.695-10.63 10.939 5.578-1.48 2.751s-.653.825-1.18.25a4.6 4.6 0 0 0-.978-1 3 3 0 0 0-.928-.375 2.7 2.7 0 0 0-1.004.025 2.5 2.5 0 0 0-.903.425q-.414.3-.677.75c-.176.3-.276.625-.326.95-.05.326 0 .676.075 1 .1.326.25.626.477.876.225.25.476.475.777.625a5.5 5.5 0 0 0 1.556.3" clip-rule="evenodd"/></svg>