<svg xmlns="http://www.w3.org/2000/svg" width="800" height="800" fill="#fff" viewBox="0 0 256 256"><path d="m235.714 134.515-32-80c-.011-.029-.028-.054-.04-.082-.03-.072-.068-.14-.103-.21a4 4 0 0 0-.242-.422 4 4 0 0 0-.141-.204 4 4 0 0 0-.35-.401c-.038-.04-.072-.083-.112-.12a4 4 0 0 0-.537-.42c-.055-.035-.114-.064-.17-.097a4 4 0 0 0-.447-.227 4 4 0 0 0-.226-.09 4 4 0 0 0-.471-.134c-.071-.016-.14-.037-.213-.049A4 4 0 0 0 200 52l-.03.002c-.051 0-.103.01-.154.012a4 4 0 0 0-.587.07c-.032.006-.064.004-.097.012L132 67.014V40a4 4 0 0 0-8 0v28.792L55.132 84.096c-.037.008-.07.026-.107.035a4 4 0 0 0-.543.18c-.053.021-.109.039-.161.063a4 4 0 0 0-.6.343c-.053.036-.099.079-.15.118a4 4 0 0 0-.388.338 4 4 0 0 0-.16.17 4 4 0 0 0-.31.396c-.038.056-.08.109-.114.166a4 4 0 0 0-.313.61l-.007.016-.004.01-31.989 79.974A4 4 0 0 0 20 168c0 20.398 22.082 28 36 28s36-7.602 36-28a4 4 0 0 0-.286-1.485L61.46 90.883 124 76.986V212h-20a4 4 0 0 0 0 8h48a4 4 0 0 0 0-8h-20V75.208l61.473-13.66-29.187 72.967A4 4 0 0 0 164 136c0 20.398 22.082 28 36 28s36-7.602 36-28a4 4 0 0 0-.286-1.485M56 188c-7.154 0-27.373-3.564-27.986-19.266L56 98.771l27.986 69.963C83.373 184.436 63.154 188 56 188m144-32c-7.154 0-27.373-3.564-27.986-19.266L200 66.771l27.986 69.963C227.373 152.436 207.154 156 200 156"/></svg>