<svg xmlns="http://www.w3.org/2000/svg" width="800" height="800" fill="#fff" viewBox="0 0 256 256"><path d="M92 216a12 12 0 1 1-12-12 12 12 0 0 1 12 12m92-12a12 12 0 1 0 12 12 12 12 0 0 0-12-12m41.56-130.901-26.399 92.396A20.08 20.08 0 0 1 179.931 180H84.069a20.08 20.08 0 0 1-19.23-14.506L38.458 73.16l-.034-.118-9.754-34.14A4.02 4.02 0 0 0 24.822 36H8a4 4 0 0 1 0-8h16.822a12.05 12.05 0 0 1 11.538 8.703L45.303 68h176.41a4 4 0 0 1 3.847 5.099M216.41 76H47.59l24.941 87.296A12.05 12.05 0 0 0 84.068 172h95.864a12.05 12.05 0 0 0 11.538-8.703Z"/></svg>