<svg xmlns="http://www.w3.org/2000/svg" xml:space="preserve" width="800" height="800" viewBox="0 0 31 32"><g fill="#fff"><path d="M15.5 0c-3.309 0-6 2.697-6 6.014V8H4.947c-.726 0-1.34.523-1.459 1.246L.021 30.266c-.072.435.05.877.335 1.213.281.331.69.521 1.123.521H29.52c.433 0 .843-.19 1.124-.521.285-.336.407-.778.335-1.213L27.512 9.245A1.48 1.48 0 0 0 26.053 8H21.5V6.014C21.5 2.697 18.809 0 15.5 0m10.553 9c.234 0 .433.172.473.408l3.467 21.02a.5.5 0 0 1-.111.403.47.47 0 0 1-.361.169H1.479a.47.47 0 0 1-.362-.169.5.5 0 0 1-.111-.403L4.474 9.409A.48.48 0 0 1 4.947 9H9.5v4.5a.5.5 0 0 0 1 0V6.014C10.5 3.249 12.743 1 15.5 1s5 2.249 5 5.014V13.5a.5.5 0 0 0 1 0V9z"/><path d="M18.5 8h-6a.5.5 0 0 0 0 1h6a.5.5 0 0 0 0-1"/></g></svg>