<svg xmlns="http://www.w3.org/2000/svg" data-name="Layer 2" viewBox="0 0 24 24"><linearGradient id="a" x1="1.5" x2="22.5" y1="12.003" y2="12.003" gradientUnits="userSpaceOnUse"><stop offset="0" stop-color="#8dc63f"/><stop offset="1" stop-color="#00aeef"/></linearGradient><path fill="url(#a)" d="M12 1.5A10.5 10.5 0 1 0 22.5 12 10.51 10.51 0 0 0 12 1.5m.5 19.975V20a.5.5 0 0 0-1 0v1.477A9.5 9.5 0 0 1 2.525 12.5H4a.5.5 0 0 0 0-1H2.525A9.5 9.5 0 0 1 11.5 2.529v1.476a.5.5 0 0 0 1 0V2.529a9.5 9.5 0 0 1 8.975 8.971H20a.5.5 0 0 0 0 1h1.477a9.5 9.5 0 0 1-8.977 8.978zM16.685 12a.5.5 0 0 1-.5.5H12a.5.5 0 0 1-.5-.5V5.929a.5.5 0 0 1 1 0V11.5h3.685a.5.5 0 0 1 .5.5" style="fill:#000"/></svg>